<?xml version="1.0" encoding="UTF-8" standalone="no"?><svg xmlns="http://www.w3.org/2000/svg" xmlns:xlink="http://www.w3.org/1999/xlink" contentScriptType="application/ecmascript" contentStyleType="text/css" height="587px" preserveAspectRatio="none" style="width:631px;height:587px;" version="1.1" viewBox="0 0 631 587" width="631px" zoomAndPan="magnify">
    <defs>
        <filter height="300%" id="f1f54z7scd1s81" width="300%" x="-1" y="-1">
            <feGaussianBlur result="blurOut" stdDeviation="2.0" />
            <feColorMatrix in="blurOut" result="blurOut2" type="matrix" values="0 0 0 0 0 0 0 0 0 0 0 0 0 0 0 0 0 0 .4 0" />
            <feOffset dx="4.0" dy="4.0" in="blurOut2" result="blurOut3" />
            <feBlend in="SourceGraphic" in2="blurOut3" mode="normal" />
        </filter>
    </defs>
    <g><text fill="#000000" font-family="sans-serif" font-size="18" lengthAdjust="spacingAndGlyphs" textLength="221" x="210" y="17.4023">Icinga Kubernetes Service</text>
        <!--cluster Semi Persistence Layer-->
        <path d="M240,499.1992 C240,489.1992 427.5,489.1992 427.5,489.1992 C427.5,489.1992 615,489.1992 615,499.1992 L615,565.1992 C615,575.1992 427.5,575.1992 427.5,575.1992 C427.5,575.1992 240,575.1992 240,565.1992 L240,499.1992 " fill="#DDDDDD" filter="url(#f1f54z7scd1s81)" style="stroke: #000000; stroke-width: 1.5;" />
        <path d="M240,499.1992 C240,509.1992 427.5,509.1992 427.5,509.1992 C427.5,509.1992 615,509.1992 615,499.1992 " fill="none" style="stroke: #000000; stroke-width: 1.5;" /><text fill="#000000" font-family="sans-serif" font-size="14" font-weight="bold" lengthAdjust="spacingAndGlyphs" textLength="165" x="345" y="524.7344">Semi Persistence Layer</text>
        <!--cluster Icinga Server Pod-->
        <polygon fill="#FFFFFF" filter="url(#f1f54z7scd1s81)" points="28,269.1992,158,269.1992,165,291.6875,168,291.6875,168,340.1992,28,340.1992,28,269.1992" style="stroke: #000000; stroke-width: 1.5;" />
        <line style="stroke: #000000; stroke-width: 1.5;" x1="28" x2="165" y1="291.6875" y2="291.6875" /><text fill="#000000" font-family="sans-serif" font-size="14" font-weight="bold" lengthAdjust="spacingAndGlyphs" textLength="124" x="32" y="284.7344">Icinga Server Pod</text>
        <!--cluster Icinga Web Server-->
        <polygon fill="#FFFFFF" filter="url(#f1f54z7scd1s81)" points="274,151.1992,407,151.1992,414,173.6875,417,173.6875,417,222.1992,274,222.1992,274,151.1992" style="stroke: #000000; stroke-width: 1.5;" />
        <line style="stroke: #000000; stroke-width: 1.5;" x1="274" x2="414" y1="173.6875" y2="173.6875" /><text fill="#000000" font-family="sans-serif" font-size="14" font-weight="bold" lengthAdjust="spacingAndGlyphs" textLength="127" x="278" y="166.7344">Icinga Web Server</text>
        <!--cluster Icinga PHP FPM Pod-->
        <polygon fill="#FFFFFF" filter="url(#f1f54z7scd1s81)" points="181,269.1992,331,269.1992,338,291.6875,341,291.6875,341,340.1992,181,340.1992,181,269.1992" style="stroke: #000000; stroke-width: 1.5;" />
        <line style="stroke: #000000; stroke-width: 1.5;" x1="181" x2="338" y1="291.6875" y2="291.6875" /><text fill="#000000" font-family="sans-serif" font-size="14" font-weight="bold" lengthAdjust="spacingAndGlyphs" textLength="144" x="185" y="284.7344">Icinga PHP FPM Pod</text>
        <!--cluster MySQL IDO Pod-->
        <polygon fill="#FFFFFF" filter="url(#f1f54z7scd1s81)" points="191,387.1992,311,387.1992,318,409.6875,339,409.6875,339,458.1992,191,458.1992,191,387.1992" style="stroke: #000000; stroke-width: 1.5;" />
        <line style="stroke: #000000; stroke-width: 1.5;" x1="191" x2="318" y1="409.6875" y2="409.6875" /><text fill="#000000" font-family="sans-serif" font-size="14" font-weight="bold" lengthAdjust="spacingAndGlyphs" textLength="114" x="195" y="402.7344">MySQL IDO Pod</text>
        <!--cluster MySQL Web Pod-->
        <polygon fill="#FFFFFF" filter="url(#f1f54z7scd1s81)" points="455,269.1992,577,269.1992,584,291.6875,609,291.6875,609,340.1992,455,340.1992,455,269.1992" style="stroke: #000000; stroke-width: 1.5;" />
        <line style="stroke: #000000; stroke-width: 1.5;" x1="455" x2="584" y1="291.6875" y2="291.6875" /><text fill="#000000" font-family="sans-serif" font-size="14" font-weight="bold" lengthAdjust="spacingAndGlyphs" textLength="116" x="459" y="284.7344">MySQL Web Pod</text>
        <!--cluster Namespace Secrets-->
        <polygon fill="#FFFFFF" filter="url(#f1f54z7scd1s81)" points="14,509.1992,24,499.1992,227,499.1992,227,565.1992,217,575.1992,14,575.1992,14,509.1992" style="stroke: #000000; stroke-width: 1.5;" />
        <line style="stroke: #000000; stroke-width: 1.5;" x1="217" x2="226" y1="509.1992" y2="500.1992" />
        <line style="stroke: #000000; stroke-width: 1.5;" x1="14" x2="217" y1="509.1992" y2="509.1992" />
        <line style="stroke: #000000; stroke-width: 1.5;" x1="217" x2="217" y1="509.1992" y2="575.1992" /><text fill="#000000" font-family="sans-serif" font-size="14" font-weight="bold" lengthAdjust="spacingAndGlyphs" textLength="137" x="48" y="525.7344">Namespace Secrets</text>
        <!--entity MySQLIDOEmpty-->
        <rect fill="#FEFECE" filter="url(#f1f54z7scd1s81)" height="36.4883" style="stroke: #A80036; stroke-width: 1.5;" width="160" x="248" y="531.1992" />
        <rect fill="#FEFECE" height="5" style="stroke: #A80036; stroke-width: 1.5;" width="10" x="243" y="536.1992" />
        <rect fill="#FEFECE" height="5" style="stroke: #A80036; stroke-width: 1.5;" width="10" x="243" y="557.6875" /><text fill="#000000" font-family="sans-serif" font-size="14" lengthAdjust="spacingAndGlyphs" textLength="140" x="258" y="554.7344">MySQL IDO EmptyDir</text>
        <!--entity MySQLWebEmpty-->
        <rect fill="#FEFECE" filter="url(#f1f54z7scd1s81)" height="36.4883" style="stroke: #A80036; stroke-width: 1.5;" width="164" x="443" y="531.1992" />
        <rect fill="#FEFECE" height="5" style="stroke: #A80036; stroke-width: 1.5;" width="10" x="438" y="536.1992" />
        <rect fill="#FEFECE" height="5" style="stroke: #A80036; stroke-width: 1.5;" width="10" x="438" y="557.6875" /><text fill="#000000" font-family="sans-serif" font-size="14" lengthAdjust="spacingAndGlyphs" textLength="144" x="453" y="554.7344">MySQL Web EmptyDir</text>
        <!--entity icingaserver-->
        <rect fill="#FEFECE" filter="url(#f1f54z7scd1s81)" height="36.4883" style="stroke: #A80036; stroke-width: 1.5;" width="107" x="49.5" y="296.1992" />
        <rect fill="#FEFECE" height="5" style="stroke: #A80036; stroke-width: 1.5;" width="10" x="44.5" y="301.1992" />
        <rect fill="#FEFECE" height="5" style="stroke: #A80036; stroke-width: 1.5;" width="10" x="44.5" y="322.6875" /><text fill="#000000" font-family="sans-serif" font-size="14" lengthAdjust="spacingAndGlyphs" textLength="87" x="59.5" y="319.7344">icinga server</text>
        <!--entity icingaweb-->
        <rect fill="#FEFECE" filter="url(#f1f54z7scd1s81)" height="36.4883" style="stroke: #A80036; stroke-width: 1.5;" width="93" x="298.5" y="178.1992" />
        <rect fill="#FEFECE" height="5" style="stroke: #A80036; stroke-width: 1.5;" width="10" x="293.5" y="183.1992" />
        <rect fill="#FEFECE" height="5" style="stroke: #A80036; stroke-width: 1.5;" width="10" x="293.5" y="204.6875" /><text fill="#000000" font-family="sans-serif" font-size="14" lengthAdjust="spacingAndGlyphs" textLength="73" x="308.5" y="201.7344">icinga web</text>
        <!--entity icingaphp-->
        <rect fill="#FEFECE" filter="url(#f1f54z7scd1s81)" height="36.4883" style="stroke: #A80036; stroke-width: 1.5;" width="132" x="192" y="296.1992" />
        <rect fill="#FEFECE" height="5" style="stroke: #A80036; stroke-width: 1.5;" width="10" x="187" y="301.1992" />
        <rect fill="#FEFECE" height="5" style="stroke: #A80036; stroke-width: 1.5;" width="10" x="187" y="322.6875" /><text fill="#000000" font-family="sans-serif" font-size="14" lengthAdjust="spacingAndGlyphs" textLength="112" x="202" y="319.7344">icinga php7 fpm</text>
        <!--entity mysqlido-->
        <rect fill="#FEFECE" filter="url(#f1f54z7scd1s81)" height="36.4883" style="stroke: #A80036; stroke-width: 1.5;" width="132" x="199" y="414.1992" />
        <rect fill="#FEFECE" height="5" style="stroke: #A80036; stroke-width: 1.5;" width="10" x="194" y="419.1992" />
        <rect fill="#FEFECE" height="5" style="stroke: #A80036; stroke-width: 1.5;" width="10" x="194" y="440.6875" /><text fill="#000000" font-family="sans-serif" font-size="14" lengthAdjust="spacingAndGlyphs" textLength="112" x="209" y="437.7344">mysql ido server</text>
        <!--entity mysqlweb-->
        <rect fill="#FEFECE" filter="url(#f1f54z7scd1s81)" height="36.4883" style="stroke: #A80036; stroke-width: 1.5;" width="138" x="463" y="296.1992" />
        <rect fill="#FEFECE" height="5" style="stroke: #A80036; stroke-width: 1.5;" width="10" x="458" y="301.1992" />
        <rect fill="#FEFECE" height="5" style="stroke: #A80036; stroke-width: 1.5;" width="10" x="458" y="322.6875" /><text fill="#000000" font-family="sans-serif" font-size="14" lengthAdjust="spacingAndGlyphs" textLength="118" x="473" y="319.7344">mysql web server</text>
        <!--entity defaultpassword-->
        <rect fill="#FEFECE" filter="url(#f1f54z7scd1s81)" height="36.4883" style="stroke: #A80036; stroke-width: 1.5;" width="138" x="74" y="531.1992" />
        <rect fill="#FEFECE" height="5" style="stroke: #A80036; stroke-width: 1.5;" width="10" x="69" y="536.1992" />
        <rect fill="#FEFECE" height="5" style="stroke: #A80036; stroke-width: 1.5;" width="10" x="69" y="557.6875" /><text fill="#000000" font-family="sans-serif" font-size="14" lengthAdjust="spacingAndGlyphs" textLength="118" x="84" y="554.7344">Default Password</text>
        <!--entity User-->
        <ellipse cx="345" cy="39.1992" fill="#FEFECE" filter="url(#f1f54z7scd1s81)" rx="8" ry="8" style="stroke: #A80036; stroke-width: 2.0;" />
        <path d="M345,47.1992 L345,74.1992 M332,55.1992 L358,55.1992 M345,74.1992 L332,89.1992 M345,74.1992 L358,89.1992 " fill="none" filter="url(#f1f54z7scd1s81)" style="stroke: #A80036; stroke-width: 2.0;" /><text fill="#000000" font-family="sans-serif" font-size="14" lengthAdjust="spacingAndGlyphs" textLength="31" x="329.5" y="109.7344">User</text>
        <!--link User to icingaweb-->
        <path d="M345,112.4889 C345,132.6503 345,156.0732 345,173.0066 " fill="none" id="User-icingaweb" style="stroke: #A80036; stroke-width: 1.0;" />
        <polygon fill="#A80036" points="345,178.0426,349,169.0426,345,173.0426,341,169.0426,345,178.0426" style="stroke: #A80036; stroke-width: 1.0;" />
        <!--link icingaweb to icingaserver-->
        <path d="M298.3867,213.496 C263.2137,227.1384 214.1524,247.4411 173,269.1992 C159.5774,276.296 145.3783,285.1498 133.3024,293.122 " fill="none" id="icingaweb-icingaserver" style="stroke: #A80036; stroke-width: 1.0;" />
        <polygon fill="#A80036" points="128.9549,296.0143,138.6637,294.3594,133.1178,293.2447,134.2324,287.6988,128.9549,296.0143" style="stroke: #A80036; stroke-width: 1.0;" /><text fill="#000000" font-family="sans-serif" font-size="13" lengthAdjust="spacingAndGlyphs" textLength="32" x="224" y="257.7676">5665</text>
        <!--link icingaweb to icingaphp-->
        <path d="M331.5969,214.3781 C316.1611,235.3141 290.8082,269.7007 274.2589,292.147 " fill="none" id="icingaweb-icingaphp" style="stroke: #A80036; stroke-width: 1.0;" />
        <polygon fill="#A80036" points="271.2755,296.1933,279.836,291.3233,274.2427,292.169,273.397,286.5757,271.2755,296.1933" style="stroke: #A80036; stroke-width: 1.0;" /><text fill="#000000" font-family="sans-serif" font-size="13" lengthAdjust="spacingAndGlyphs" textLength="32" x="310" y="257.7676">9000</text>
        <!--link icingaweb to mysqlido-->
        <path d="M349.9589,214.2917 C356.7017,242.4008 366.0884,297.7414 349,340.1992 C337.4925,368.7907 312.7688,394.0579 293.1078,410.8427 " fill="none" id="icingaweb-mysqlido" style="stroke: #A80036; stroke-width: 1.0;" />
        <polygon fill="#A80036" points="289.2485,414.085,298.7124,411.3583,293.0768,410.8688,293.5664,405.2331,289.2485,414.085" style="stroke: #A80036; stroke-width: 1.0;" /><text fill="#000000" font-family="sans-serif" font-size="13" lengthAdjust="spacingAndGlyphs" textLength="32" x="359" y="319.2676">3306</text>
        <!--link icingaserver to mysqlido-->
        <path d="M127.9575,332.3781 C157.0579,353.5747 205.087,388.5589 235.868,410.9796 " fill="none" id="icingaserver-mysqlido" style="stroke: #A80036; stroke-width: 1.0;" />
        <polygon fill="#A80036" points="240.28,414.1933,235.3603,405.6612,236.2385,411.2495,230.6502,412.1277,240.28,414.1933" style="stroke: #A80036; stroke-width: 1.0;" /><text fill="#000000" font-family="sans-serif" font-size="13" lengthAdjust="spacingAndGlyphs" textLength="32" x="189" y="375.7676">3306</text>
        <!--link icingaweb to mysqlweb-->
        <path d="M373.8089,214.3781 C407.5378,235.6615 463.296,270.8459 498.8082,293.2546 " fill="none" id="icingaweb-mysqlweb" style="stroke: #A80036; stroke-width: 1.0;" />
        <polygon fill="#A80036" points="503.4652,296.1933,497.9885,288.0076,499.2367,293.5251,493.7193,294.7733,503.4652,296.1933" style="stroke: #A80036; stroke-width: 1.0;" /><text fill="#000000" font-family="sans-serif" font-size="13" lengthAdjust="spacingAndGlyphs" textLength="32" x="445" y="257.7676">3306</text>
        <!--link mysqlido to MySQLIDOEmpty-->
        <path d="M274.7057,450.224 C285.7261,470.6906 303.7273,504.1214 315.717,526.3878 " fill="none" id="mysqlido-MySQLIDOEmpty" style="stroke: #A80036; stroke-width: 1.0;" />
        <polygon fill="#A80036" points="318.1795,530.9611,317.4347,521.1405,315.8091,526.5587,310.3908,524.9331,318.1795,530.9611" style="stroke: #A80036; stroke-width: 1.0;" />
        <!--link mysqlweb to MySQLWebEmpty-->
        <path d="M531.4623,332.249 C530.2077,374.3689 527.0876,479.1148 525.6929,525.9391 " fill="none" id="mysqlweb-MySQLWebEmpty" style="stroke: #A80036; stroke-width: 1.0;" />
        <polygon fill="#A80036" points="525.5395,531.0879,529.8059,522.2111,525.6885,526.0901,521.8095,521.9727,525.5395,531.0879" style="stroke: #A80036; stroke-width: 1.0;" />
        <!--link icingaserver to defaultpassword-->
        <path d="M106.0723,332.249 C113.2416,374.3689 131.0707,479.1148 139.0408,525.9391 " fill="none" id="icingaserver-defaultpassword" style="stroke: #A80036; stroke-width: 1.0;" />
        <polygon fill="#A80036" points="139.9172,531.0879,142.3503,521.5443,139.0782,526.1588,134.4637,522.8867,139.9172,531.0879" style="stroke: #A80036; stroke-width: 1.0;" />
        <!--link mysqlido to defaultpassword-->
        <path d="M246.2049,450.224 C224.5065,471.0332 188.8336,505.244 165.6304,527.4963 " fill="none" id="mysqlido-defaultpassword" style="stroke: #A80036; stroke-width: 1.0;" />
        <polygon fill="#A80036" points="162.0175,530.9611,171.2818,527.6186,165.6262,527.5003,165.7445,521.8447,162.0175,530.9611" style="stroke: #A80036; stroke-width: 1.0;" />
        <!--
@startuml

title Icinga Kubernetes Service

actor User

database "Semi Persistence Layer" #DDDDDD {
    [MySQL IDO EmptyDir] as MySQLIDOEmpty
    [MySQL Web EmptyDir] as MySQLWebEmpty
}

package "Icinga Server Pod" {
  [icinga server] as icingaserver
}

package "Icinga Web Server" {
  [icinga web] as icingaweb
}

package "Icinga PHP FPM Pod" {
  [icinga php7 fpm] as icingaphp
}

package "MySQL IDO Pod" {
    [mysql ido server] as mysqlido
}

package "MySQL Web Pod" {
    [mysql web server] as mysqlweb
}

node "Namespace Secrets" {
  [Default Password] as defaultpassword
}

User - -> icingaweb
icingaweb - -> icingaserver : 5665
icingaweb - -> icingaphp : 9000
icingaweb - -> mysqlido : 3306
icingaserver - -> mysqlido : 3306
icingaweb - -> mysqlweb : 3306
mysqlido - -> MySQLIDOEmpty
mysqlweb - -> MySQLWebEmpty

icingaserver - -> defaultpassword
mysqlido - -> defaultpassword
@enduml

PlantUML version 1.2019.08(Sat Jul 13 13:25:14 MDT 2019)
(GPL source distribution)
Java Runtime: OpenJDK Runtime Environment
JVM: OpenJDK 64-Bit Server VM
Java Version: 12.0.1+12
Operating System: Mac OS X
OS Version: 10.14.6
Default Encoding: UTF-8
Language: en
Country: US
-->
    </g>
</svg>
